<?xml version="1.0" standalone="no"?>
<!DOCTYPE svg PUBLIC "-//W3C//DTD SVG 20010904//EN"
 "http://www.w3.org/TR/2001/REC-SVG-20010904/DTD/svg10.dtd">
<svg version="1.0" xmlns="http://www.w3.org/2000/svg"
 width="279.000000pt" height="279.000000pt" viewBox="0 0 279.000000 279.000000"
 preserveAspectRatio="xMidYMid meet">
<metadata>
Created by potrace 1.14, written by Peter Selinger 2001-2017
</metadata>
<g transform="translate(0.000000,279.000000) scale(0.100000,-0.100000)"
fill="#000000" stroke="none">
<path d="M30 1395 l0 -1395 1360 0 1360 0 0 1395 0 1395 -1360 0 -1360 0 0
-1395z m2065 616 c146 -57 214 -199 170 -349 -20 -66 -64 -116 -132 -151 l-54
-27 48 -12 c75 -20 136 -70 172 -143 76 -152 14 -352 -131 -425 -91 -46 -158
-54 -475 -54 -161 0 -293 2 -293 5 0 3 14 33 30 66 59 115 61 240 6 333 l-25
42 -5 373 -5 372 317 -3 c306 -3 319 -4 377 -27z m-960 -71 c76 -29 99 -44
153 -94 45 -42 92 -121 92 -154 0 -16 -14 -22 -87 -38 -67 -14 -88 -15 -91 -5
-2 6 -18 31 -36 54 -87 115 -307 144 -395 53 -43 -45 -50 -92 -21 -150 27 -58
72 -85 205 -126 331 -103 429 -167 466 -305 17 -62 6 -162 -24 -220 -69 -136
-206 -199 -427 -199 -245 1 -407 85 -487 254 -17 36 -29 67 -27 69 2 2 46 11
97 20 l95 17 18 -33 c24 -46 97 -111 149 -134 57 -25 165 -38 236 -29 104 14
156 55 166 130 7 51 -1 82 -33 120 -37 43 -97 71 -294 136 -257 85 -333 145
-360 287 -32 172 73 311 275 364 78 20 256 11 330 -17z"/>
<path d="M1610 1710 l0 -170 140 0 c207 0 274 22 315 101 22 41 19 127 -5 167
-37 60 -81 72 -277 72 l-173 0 0 -170z"/>
<path d="M1610 1201 l0 -191 173 0 c195 0 256 12 299 57 83 87 58 238 -47 293
-47 24 -59 25 -237 28 l-188 4 0 -191z"/>
</g>
</svg>
